<svg width="28" height="28" viewBox="0 0 28 28" fill="none" xmlns="http://www.w3.org/2000/svg">
<path d="M27.5789 0.131105C27.4873 0.107464 27.3904 0.11609 27.3044 0.155532C27.2185 0.194974 27.1487 0.262825 27.1069 0.347667C27.0694 0.424542 26.1415 2.24892 22.077 4.39532C22.0208 4.41984 21.9709 4.45664 21.9309 4.503C21.8908 4.54936 21.8617 4.60411 21.8456 4.66321C21.5917 5.61437 21.2473 6.53905 20.8172 7.42462C20.5799 6.91056 20.4209 6.36388 20.3454 5.80275C20.3365 5.74054 20.3133 5.68122 20.2778 5.62936C20.2423 5.57751 20.1954 5.53451 20.1406 5.50368C20.0858 5.47286 20.0247 5.45503 19.962 5.45157C19.8992 5.44812 19.8365 5.45913 19.7787 5.48376C18.7043 5.9415 17.535 6.37743 16.3031 6.77915C14.6698 7.30117 13.0937 7.98806 11.5995 8.82923C11.513 8.87882 11.4476 8.95823 11.4155 9.05259C11.2302 9.59634 11.03 10.1099 10.815 10.5934C10.8239 10.4321 10.8358 10.2607 10.8506 10.0792C10.8571 10.0017 10.8413 9.92394 10.8053 9.85505C10.7692 9.78615 10.7143 9.72893 10.647 9.69004C10.5797 9.65116 10.5027 9.63221 10.425 9.63541C10.3473 9.63862 10.2721 9.66384 10.2082 9.70814C6.04126 12.5938 3.77064 16.6665 3.0654 22.5102C1.99775 23.627 1.0599 24.861 0.269776 26.1887C0.12219 26.4395 0.0759519 26.7371 0.140513 27.0209C0.205073 27.3046 0.375558 27.5529 0.61712 27.7152C0.795607 27.8302 1.00339 27.8914 1.21571 27.8917H19.9657C20.0745 27.8917 20.1788 27.8484 20.2557 27.7715C20.3327 27.6946 20.3759 27.5903 20.3759 27.4815C20.3759 27.3727 20.3327 27.2684 20.2557 27.1915C20.1788 27.1146 20.0745 27.0713 19.9657 27.0713H2.34329C3.05546 25.9243 3.88876 24.8571 4.82884 23.8881C8.87204 23.6898 18.2475 22.8732 21.9321 19.5418C22.1995 19.2998 22.4539 19.0437 22.6941 18.7747C22.7422 18.7211 22.7754 18.6558 22.7903 18.5853C22.8051 18.5148 22.8012 18.4417 22.7788 18.3732C22.7564 18.3047 22.7164 18.2434 22.6628 18.1953C22.6091 18.1472 22.5438 18.114 22.4733 18.0992C22.3854 18.0809 22.2985 18.0617 22.212 18.0423C22.5035 18.001 22.8312 17.9619 23.1924 17.9295C23.2523 17.924 23.3103 17.9054 23.3623 17.8751C23.4143 17.8447 23.459 17.8033 23.4933 17.7538C26.4884 13.4075 27.3504 10.0311 27.8848 0.550636C27.89 0.456158 27.8624 0.362776 27.8067 0.286316C27.7509 0.209856 27.6705 0.155021 27.5789 0.131105ZM0.978292 26.6019C3.53298 22.2191 8.26032 18.8884 13.2649 15.3627C14.3121 14.6251 15.4999 13.7891 16.6383 12.9531C16.6887 12.9157 16.7497 12.8955 16.8124 12.8954C16.8281 12.8954 16.8438 12.8967 16.8593 12.8992C16.8972 12.905 16.9336 12.9184 16.9663 12.9385C16.999 12.9586 17.0273 12.9851 17.0496 13.0163C17.0952 13.079 17.1142 13.1571 17.1025 13.2336C17.0908 13.3102 17.0494 13.3791 16.9873 13.4253C15.8438 14.2627 14.6529 15.1016 13.6015 15.8417C8.64142 19.3363 3.95626 22.637 1.46696 26.926C1.44718 26.9602 1.42066 26.9899 1.38901 27.0135C1.35737 27.037 1.32126 27.0539 1.28288 27.063C1.24451 27.0722 1.20467 27.0734 1.16581 27.0666C1.12694 27.0599 1.08985 27.0453 1.05681 27.0238C0.993372 26.976 0.950131 26.9062 0.935599 26.8281C0.921067 26.75 0.936298 26.6693 0.978292 26.6019ZM22.9256 17.1306C22.0574 17.2028 21.1972 17.3519 20.3552 17.5759C20.2726 17.6009 20.2 17.6513 20.1478 17.72C20.0955 17.7887 20.0662 17.8721 20.064 17.9584C20.0619 18.0447 20.087 18.1294 20.1358 18.2006C20.1846 18.2718 20.2545 18.3258 20.3358 18.3549C20.7305 18.4956 21.1512 18.6235 21.5927 18.7365C21.5224 18.8038 21.4533 18.8689 21.3818 18.9327C18.0977 21.902 9.54282 22.7729 5.69321 23.0176C8.06321 20.7481 11.0156 18.6676 14.0749 16.5125C15.1296 15.7702 16.3226 14.9291 17.4713 14.0865C17.7077 13.9117 17.8656 13.6507 17.9108 13.3602C17.9559 13.0696 17.8846 12.773 17.7124 12.5347C17.6263 12.4159 17.5176 12.3154 17.3924 12.2388C17.2673 12.1623 17.1283 12.1113 16.9833 12.0887C16.8384 12.0661 16.6904 12.0725 16.5479 12.1073C16.4054 12.1422 16.2713 12.2049 16.1531 12.2919C15.0202 13.123 13.8366 13.9559 12.7924 14.6924C9.60868 16.9353 6.53603 19.1005 4.03431 21.5213C4.7972 16.8292 6.70806 13.4087 9.97993 10.8901C9.95642 11.3683 9.9626 11.8475 9.99845 12.3249C10.0071 12.4108 10.0425 12.4917 10.0998 12.5562C10.1571 12.6208 10.2332 12.6656 10.3174 12.6843C10.4017 12.7031 10.4896 12.6948 10.5689 12.6606C10.6481 12.6265 10.7146 12.5682 10.7588 12.4942C11.3197 11.5332 11.7829 10.5184 12.1416 9.46509C13.5482 8.68715 15.0276 8.0488 16.5586 7.55915C17.6344 7.20759 18.6642 6.83118 19.6273 6.4365C19.9249 7.80337 20.5006 8.49314 20.528 8.52501C20.5707 8.57525 20.625 8.61443 20.6861 8.63923C20.7472 8.66404 20.8134 8.67374 20.8791 8.6675C20.9448 8.66127 21.008 8.63929 21.0633 8.60343C21.1187 8.56756 21.1646 8.51888 21.1971 8.4615C21.7958 7.38471 22.2633 6.24007 22.5895 5.05204C24.8972 3.81782 26.2355 2.67032 26.9848 1.8622C26.4598 10.0236 25.586 13.2207 22.9256 17.1306Z" fill="#87A900"/>
<path d="M25.3127 8.38444C25.2597 8.37478 25.2052 8.37568 25.1526 8.38709C25.0999 8.39851 25.0499 8.42021 25.0057 8.45095C24.9614 8.4817 24.9236 8.52088 24.8945 8.56626C24.8654 8.61163 24.8455 8.66231 24.836 8.71538C24.7242 9.33718 24.6016 9.90436 24.4643 10.4498C24.4376 10.5552 24.454 10.6669 24.5096 10.7603C24.5653 10.8538 24.6558 10.9213 24.7612 10.948C24.7942 10.9564 24.8282 10.9606 24.8622 10.9605C24.9534 10.9604 25.042 10.9299 25.1139 10.8739C25.1859 10.8179 25.2371 10.7395 25.2595 10.6511C25.4022 10.0886 25.5281 9.50265 25.6436 8.86116C25.663 8.75406 25.639 8.64367 25.5769 8.55427C25.5148 8.46487 25.4198 8.40378 25.3127 8.38444Z" fill="#87A900"/>
</svg>
